<?xml version="1.0"?>
<svg aria-hidden="true" style="position: absolute; width: 0; height: 0; overflow: hidden;" version="1.1" xmlns="http://www.w3.org/2000/svg" xmlns:xlink="http://www.w3.org/1999/xlink">
	<symbol id="15-min" viewBox="0 0 20 20">
	<path d="M168.611,0C75.489,0,0,75.489,0,168.611s75.489,168.611,168.611,168.611   s168.611-75.489,168.611-168.611S261.733,0,168.611,0z M168.611,304.588c-74.978,0-135.977-60.999-135.977-135.977   S93.633,32.634,168.611,32.634s135.977,60.999,135.977,135.977S243.588,304.588,168.611,304.588z" data-original="#010002" class="active-path" data-old_color="#010002" fill="#FFAA00" id="15-min"/>
	<path d="M166.299,249.751h21.783v36.132h-21.783V249.751z M53.194,151.483h36.279v27.195H53.194   C53.194,178.679,53.194,151.483,53.194,151.483z M252.911,216.671l19.847,11.46c1.773-3.155,3.399-6.407,4.884-9.73l-19.287-11.145   L252.911,216.671z M216.85,248.636l13.745,23.616c3.095-1.925,6.108-3.971,9.007-6.162l-13.353-22.931L216.85,248.636z    M118.316,272.312l-9.399-5.472l13.788-23.682l9.399,5.477L118.316,272.312z M72.274,230.41l-5.439-9.415l23.774-13.728   l5.439,9.415L72.274,230.41z M90.615,122.907l-23.774-13.734l5.439-9.42l23.774,13.734L90.615,122.907z M122.711,87.009   l-13.788-23.676l9.399-5.472l13.788,23.676L122.711,87.009z" data-original="#010002" class="active-path" data-old_color="#010002" fill="#FFAA00"/>
	<path d="M10 1.6c-4.639 0-8.4 3.761-8.4 8.4s3.761 8.4 8.4 8.4 8.4-3.761 8.4-8.4c0-4.639-3.761-8.4-8.4-8.4zM14.789 13.061l-1.729 1.729-3.060-3.061-3.061 3.060-1.729-1.729 3.062-3.060-3.061-3.061 1.729-1.728 3.060 3.060 3.061-3.061 1.729 1.729-3.062 3.061 3.061 3.061z"/>
	</symbol>
</svg>
