<?xml version="1.0"?>
<svg xmlns="http://www.w3.org/2000/svg" xmlns:xlink="http://www.w3.org/1999/xlink" version="1.1" id="Capa_1" x="0px" y="0px" viewBox="0 0 337.222 337.222" style="enable-background:new 0 0 337.222 337.222;" xml:space="preserve" width="512px" height="512px" class=""><g><g>
	<path d="M168.611,0C75.489,0,0,75.489,0,168.611s75.489,168.611,168.611,168.611   s168.611-75.489,168.611-168.611S261.733,0,168.611,0z M168.611,304.588c-74.978,0-135.977-60.999-135.977-135.977   S93.633,32.634,168.611,32.634s135.977,60.999,135.977,135.977S243.588,304.588,168.611,304.588z" data-original="#010002" class="active-path" data-old_color="#FF8C00" fill="#FFAA00"/>
	<path d="M57.366,155.013h38.063v27.195H57.366V155.013z M125.468,280.993l-9.399-5.472l14.468-24.846   l9.404,5.477L125.468,280.993z M77.262,236.931l-5.439-9.42l24.938-14.408l5.439,9.415L77.262,236.931z M96.761,124.125   l-24.938-14.408l5.439-9.42l24.944,14.414L96.761,124.125z M130.543,86.557l-14.468-24.84l9.404-5.472l14.468,24.84L130.543,86.557   z M243.85,154.366c-1.104,3.399-1.664,8.632-1.664,15.697c0,6.744,0.56,11.901,1.664,15.469c1.104,3.579,3.372,5.363,6.799,5.363   c3.427,0,5.673-1.784,6.739-5.363c1.061-3.568,1.599-8.724,1.599-15.469c0-7.065-0.538-12.298-1.599-15.697   c-1.066-3.399-3.312-5.096-6.739-5.096C247.216,149.264,244.954,150.967,243.85,154.366z" data-original="#010002" class="active-path" data-old_color="#FF8C00" fill="#FFAA00" id="30-min"/>
	<path d="M166.299,46.64v121.971v121.971c67.363,0,121.971-54.608,121.971-121.971   S233.662,46.64,166.299,46.64z M219.319,194.637c-3.437,3.758-8.523,5.646-15.262,5.646c-8.3,0-14.065-2.709-17.302-8.131   c-0.984-1.681-1.713-3.655-2.192-5.939c-0.615-2.943,1.806-5.39,4.803-5.39h0.457c3.002,0,5.385,1.349,5.673,2.975   c0.19,1.066,0.49,2.018,0.892,2.85c1.403,2.834,3.949,4.248,7.636,4.248c2.252,0,4.226-0.783,5.907-2.333   c1.686-1.55,2.529-3.775,2.529-6.695c0-3.856-1.561-6.434-4.678-7.723c-1.033-0.424-2.41-0.729-4.139-0.903   c-2.339-0.245-4.253-2.04-4.253-4.319s1.779-4.106,3.96-4.34c1.697-0.18,2.975-0.473,3.867-0.876   c2.551-1.131,3.824-3.427,3.824-6.88c0-2.241-0.647-4.058-1.953-5.461s-3.144-2.105-5.515-2.105c-2.72,0-4.716,0.865-5.994,2.589   c-0.691,0.93-1.191,2.029-1.485,3.296c-0.468,1.958-2.758,3.622-5.733,3.622s-5.347-1.904-4.939-4.199   c0.25-1.403,0.598-2.768,1.05-4.09c0.946-2.295,2.426-4.411,4.444-6.353c1.512-1.376,3.301-2.426,5.374-3.155   c2.083-0.729,4.623-1.093,7.642-1.093c5.602,0,10.117,1.452,13.56,4.351c3.437,2.899,5.151,6.788,5.151,11.672   c0,3.454-1.023,6.364-3.073,8.741c-0.604,0.691-1.218,1.278-1.838,1.762c-1.115,0.865-0.984,1.452,0.245,2.29   c0.62,0.43,1.311,0.99,2.078,1.692c2.943,2.725,4.411,6.445,4.411,11.166C224.47,186.516,222.746,190.879,219.319,194.637z    M266.367,147.649c3.008,5.26,4.504,12.733,4.504,22.414c0,9.682-1.496,17.138-4.504,22.371c-3.013,5.232-8.251,7.849-15.724,7.849   s-12.711-2.616-15.724-7.849c-3.008-5.232-4.504-12.689-4.504-22.371c0-9.682,1.496-17.155,4.504-22.414   c3.013-5.26,8.251-7.887,15.724-7.887C258.116,139.757,263.354,142.389,266.367,147.649z" data-original="#010002" class="active-path" data-old_color="#FF8C00" fill="#FFAA00"/>
</g></g> </svg>
