<?xml version="1.0"?>
<svg xmlns="http://www.w3.org/2000/svg" xmlns:xlink="http://www.w3.org/1999/xlink" version="1.1" id="Capa_1" x="0px" y="0px" width="512px" height="512px" viewBox="0 0 381.232 381.232" style="enable-background:new 0 0 381.232 381.232;" xml:space="preserve"><g><g>
	<path d="M190.616,0C85.34,0,0,85.34,0,190.616c0,105.276,85.34,190.616,190.616,190.616c105.275,0,190.616-85.34,190.616-190.616   C381.232,85.34,295.892,0,190.616,0z M190.616,344.339c-84.764,0-153.723-68.959-153.723-153.723S105.853,36.894,190.616,36.894   s153.723,68.959,153.723,153.723S275.38,344.339,190.616,344.339z" data-original="#000000" class="active-path" fill="#FFB200" id="45-min"/>
	<path d="M188.772,52.729v137.888H50.875c0,76.153,61.735,137.889,137.891,137.889c76.152,0,137.894-61.735,137.894-137.889   C326.66,114.464,264.926,52.729,188.772,52.729z M186.908,274.72c-2.501,0-4.525,2.906-4.525,6.497v4.239   c0,3.585-2.909,6.497-6.494,6.497h-2.423c-3.585,0-6.494-2.912-6.494-6.497v-4.239c0-3.591-2.907-6.497-6.491-6.497H141.77   c-3.585,0-6.494-2.906-6.494-6.491v-0.769c0-3.585,1.507-8.978,3.363-12.046l22.71-37.488c1.855-3.074,6.269-5.554,9.854-5.554   h4.687c3.585,0,6.494,2.906,6.494,6.491v37.049c0,3.586,2.03,6.492,4.525,6.492c2.504,0,4.524,2.756,4.524,6.154   S189.412,274.72,186.908,274.72z M246.389,285.324c-4.744,5.824-11.842,8.73-21.293,8.73c-7.614,0-13.871-2.041-18.76-6.131   c-3.404-2.84-5.758-6.515-7.049-11.006c-0.997-3.447,1.795-6.39,5.38-6.39h2.702c3.579,0,6.762,1.981,7.71,4.228   c0.625,1.459,1.405,2.696,2.354,3.705c1.766,1.855,4.335,2.786,7.716,2.786c3.892,0,6.863-1.375,8.894-4.113   c2.041-2.738,3.062-6.197,3.062-10.358c0-4.09-0.961-7.536-2.877-10.353c-1.909-2.816-4.888-4.222-8.917-4.222   c-1.921,0-3.566,0.24-4.966,0.709c-1.243,0.444-2.324,1.093-3.249,1.922c-1.585,1.393-5.224,2.864-8.803,2.689l-1.141-0.054   c-3.579-0.168-6.125-3.188-5.669-6.755l3.981-31.352c0.45-3.549,3.729-6.438,7.308-6.438h31.075c3.585,0,6.491,2.913,6.491,6.492   v0.384c0,3.585-2.906,6.497-6.491,6.497h-19.714c-3.585,0-6.966,2.858-7.542,6.401l-0.769,4.695   c-0.583,3.531,0.156,5.597,1.711,4.708c1.159-0.66,2.132-1.152,2.925-1.441c2.281-0.853,5.05-1.272,8.322-1.272   c6.617,0,12.394,2.222,17.306,6.688c4.942,4.45,7.398,10.924,7.398,19.432C253.51,272.9,251.132,279.512,246.389,285.324z" data-original="#000000" class="active-path" fill="#FFB200"/>
	<path d="M77.846,119.541l28.199,16.294l-6.149,10.652L71.697,130.19L77.846,119.541z M132.336,69.704l16.357,28.081l-10.631,6.188   l-16.357-28.085L132.336,69.704z M163.721,233.539l-13.478,23.244c-1.795,3.117-0.351,5.621,3.234,5.621h7.004   c3.584,0,6.491-2.906,6.491-6.492v-21.509C166.972,230.824,165.516,230.428,163.721,233.539z" data-original="#000000" class="active-path" fill="#FFB200"/>
</g></g> </svg>
